<!-- Generated by IcoMoon.io -->
<svg version="1.1" xmlns="http://www.w3.org/2000/svg" width="38" height="32" viewBox="0 0 38 32">
<title>twitter-ikon</title>
<path fill="#f4f4fd" d="M38.4 4.094c-1.428 0.626-2.95 1.042-4.536 1.243 1.632-0.974 2.878-2.506 3.463-4.351-1.522 0.907-3.202 1.548-4.992 1.906-1.445-1.538-3.504-2.491-5.75-2.491-4.358 0-7.867 3.538-7.867 7.874 0 0.624 0.053 1.224 0.182 1.795-6.545-0.319-12.336-3.456-16.226-8.234-0.679 1.178-1.078 2.527-1.078 3.979 0 2.726 1.404 5.143 3.497 6.542-1.265-0.024-2.506-0.391-3.557-0.97 0 0.024 0 0.055 0 0.086 0 3.826 2.729 7.003 6.307 7.735-0.641 0.175-1.339 0.259-2.064 0.259-0.504 0-1.013-0.029-1.49-0.134 1.020 3.118 3.914 5.41 7.356 5.484-2.678 2.095-6.079 3.358-9.761 3.358-0.646 0-1.265-0.029-1.884-0.108 3.487 2.249 7.62 3.533 12.077 3.533 14.486 0 22.406-12 22.406-22.402 0-0.348-0.012-0.684-0.029-1.018 1.562-1.109 2.875-2.494 3.946-4.087z"></path>
</svg>
